<svg version="1.1" id="Layer_1" xmlns="http://www.w3.org/2000/svg" x="0" y="0" viewBox="0 0 395 72" xml:space="preserve"><style>.st0{fill:#fff}</style><path class="st0" d="M96.6 55.2c-8.8-1.7-16.3-5.9-21.1-12-2.8-3.6-4.3-7.5-4.5-11.5-.1-1.1.8-1.5 1.7-1.5 15.1.1 25 1.7 29.6 3.2v-4.2c-9-2.7-24.3-3-29.1-3-.8 0-1.5-.7-1-1.8 1.5-3.3 3.6-6.5 6.9-9 3.8-3 8.6-4.9 13.8-5.8 4.2 3.4 7.4 7.9 9.4 13V0C91.8 0 83.1.9 75.7 2.4c4.6.5 8.9 1.9 12.7 4.1C84 7.7 80 9.6 76.7 12.2c-4.9 3.8-8 8.6-9.2 14-1.5 0-3.2.1-5 .2 1-11.2 4.1-19.4 7.4-22.7-2.2.6-4.2 1.2-6.2 1.8-2.8 5.4-4.6 13.1-5.3 21.2-1 .1-2.1.2-3.2.3-.9-5.3-3.3-10-7.1-13.5.7-.8 1.4-1.6 2.2-2.3C39.4 16.6 31.9 22 20.7 22 6.7 22 0 16.1 0 16.1 8.6 58 37.4 61.8 56.6 62c-4.1-2.3-7.6-5.5-10.3-9.4 5.8-5.8 9.3-13.6 9.3-21.7.8-.1 1.7-.2 2.6-.3 0 1.2-.1 2.3-.1 3.5 0 10.2 1.8 20.7 5.2 27.8h4.6c-3.2-5.3-5.7-15.3-5.7-27.8 0-1.3 0-2.6.1-3.8 1.5-.1 3.1-.1 4.7-.2-.1 5.4 1.7 10.6 5.4 15.4 4.8 6.2 12.3 10.8 20.9 13-2.9 2.4-6.1 4.4-9.7 5.7 11.7 3 18.8 7.8 18.8 7.8V45.9c-1.5 3.4-3.4 6.6-5.8 9.3zM45.8 16.6c2.5 2.4 4.3 5.5 5.2 8.9.2 1-.1 1.9-1 2.1-3.5.5-6.7 1.3-9.2 2.3.7-4.8 2.4-9.3 5-13.3zm-1.6 32.6c-2.3-4.4-3.7-9.4-3.7-14.8 1.1-.8 4.5-2 10.1-2.9.8-.1 1 .3 1 1-.2 6.2-3 12.1-7.4 16.7zM140.2 38.6c-2.7 2.3-6.8 3.4-12.1 3.4-5.1 0-9.1-1.1-12.1-3.2-3-2.2-4.6-5.5-5-10h8.7c.3 2.2 1.2 3.8 2.6 4.8 1.4 1 3.4 1.5 6.1 1.5 2.6 0 4.4-.5 5.4-1.5s1.5-2.2 1.5-3.7c0-1.2-.4-2.2-1.1-3.1-.7-.9-2.2-1.5-4.4-1.8l-5.3-1c-4.3-.8-7.5-2.1-9.6-3.9-2.1-1.8-3.2-4.5-3.2-8 0-2.6.7-4.8 2-6.6 1.3-1.8 3.2-3.1 5.6-4.1 2.4-.9 5.2-1.4 8.3-1.4 3.5 0 6.3.5 8.5 1.5s3.9 2.3 5.1 4c1.2 1.7 1.9 3.7 2.2 5.9l-8.5 1.1c-.5-1.9-1.3-3.2-2.3-4.1-1.1-.9-2.8-1.3-5.2-1.3-2.5 0-4.4.4-5.4 1.3-1.1.9-1.6 2-1.6 3.3s.4 2.4 1.2 3.1c.8.7 2.3 1.3 4.3 1.7l5.5 1.1c4.4.9 7.7 2.2 9.7 4.1 2 1.9 3 4.5 3 8 .2 3.5-1.2 6.6-3.9 8.9zM158.3 8.7h-12.2V1h33.3v7.7h-12.3V41h-8.8V8.7zM190.1 1h10.4l14.2 40h-9.1l-3-8.8h-15l-3 8.8h-8.8l14.3-40zm10.4 24l-5.4-16.3-5.3 16.3h10.7zM223.4 8.7h-12.2V1h33.3v7.7h-12.3V41h-8.8V8.7zM248.5 1h8.8v15.4h15.6V1h8.8v40h-8.8V24.3h-15.6V41h-8.8V1zM287.3 1H315v7.1h-19V17h17.9v7.1H296v9.7h20.2l-.9 7.1h-28V1zM332.4 1h10.4L357 41h-9.1l-3-8.8h-15l-3 8.8h-8.8l14.3-40zm10.4 24l-5.4-16.3-5.3 16.3h10.7zM360.1 1h15.2c6.3 0 11.2 1.6 14.6 4.9s5.1 8.2 5.1 14.8-1.8 11.7-5.3 15.1c-3.6 3.4-8.6 5.2-15 5.2h-14.5V1h-.1zM375 33.6c3.8 0 6.5-1.1 8.3-3.3s2.7-5.3 2.7-9.4c0-4-.8-7.1-2.5-9.2s-4.3-3.2-7.9-3.2h-6.7v25.1h6.1z"/><g><path class="st0" d="M112.8 47.6H125c7.2 0 10.8 2 10.8 6.1 0 2.6-1.5 4.3-4.5 5.1 3.7 1.1 5.6 3 5.6 5.7 0 2.2-1 4-2.9 5.1-1.9 1.2-4.7 1.8-8.4 1.8h-12.7V47.6h-.1zm12.4 10c2.3 0 3.9-.3 5-.9s1.6-1.5 1.6-2.8c0-1.2-.6-2.1-1.7-2.6s-2.9-.8-5.4-.8h-8.2v7.2l8.7-.1zm.1 11c2.7 0 4.6-.3 5.8-.9s1.8-1.7 1.8-3.1c0-2.8-2.5-4.2-7.4-4.2h-9v8.2h8.8zM151.7 47.6h3.9l13.3 23.8h-4.2l-3.6-6.6h-15l-3.6 6.6h-4.1l13.3-23.8zm7.9 14.5l-6.1-11-6.1 11h12.2zM169.8 64.5h3.9c.4 1.6 1.3 2.7 2.9 3.5 1.6.8 3.8 1.1 6.8 1.1 2.7 0 4.7-.3 6.1-1 1.4-.7 2.1-1.7 2.1-3 0-1.1-.5-2-1.5-2.6s-2.6-1.1-4.7-1.3l-4.8-.6c-2.5-.3-4.4-.8-5.9-1.3-1.5-.6-2.6-1.3-3.3-2.2-.7-.9-1-2-1-3.4 0-2.1 1.1-3.7 3.3-4.8 2.2-1.2 5.2-1.7 9-1.7 3.5 0 6.2.5 8.1 1.5 1.9 1 3.2 2.6 4 4.7l-3.6.6c-.6-1.4-1.6-2.4-2.9-3-1.3-.6-3.2-.9-5.5-.9-2.7 0-4.8.3-6.3.9s-2.2 1.5-2.2 2.7c0 1.1.5 2 1.5 2.6s2.7 1 5.2 1.3l5.3.7c3.2.4 5.5 1.2 7 2.3 1.5 1.2 2.3 2.7 2.3 4.7 0 2.2-1.1 3.8-3.2 5.1-2.1 1.2-5.1 1.8-9 1.8-8.4-.2-12.9-2.7-13.6-7.7zM200.8 47.6h3.8v11.7l16.3-11.7h4.8l-12.4 9 13.6 14.8h-4.6l-11.8-12.9-5.9 4.1v8.7h-3.8V47.6zM230.2 47.6H252v2.9h-18v7.2h17.1v2.9H234v7.9h18.8l-.7 2.9h-21.9V47.6zM266.5 50.5h-11.3v-2.9h26.5v2.9h-11.3v20.9h-3.9V50.5zM284.7 47.6h12.2c7.2 0 10.8 2 10.8 6.1 0 2.6-1.5 4.3-4.5 5.1 3.7 1.1 5.6 3 5.6 5.7 0 2.2-1 4-2.9 5.1-1.9 1.2-4.7 1.8-8.4 1.8h-12.7V47.6h-.1zm12.4 10c2.3 0 3.9-.3 5-.9s1.6-1.5 1.6-2.8c0-1.2-.6-2.1-1.7-2.6s-2.9-.8-5.4-.8h-8.3v7.2l8.8-.1zm.1 11c2.7 0 4.6-.3 5.8-.9 1.2-.6 1.8-1.7 1.8-3.1 0-2.8-2.5-4.2-7.4-4.2h-8.9v8.2h8.7zM322.8 47.6h3.9L340 71.4h-4.2l-3.6-6.6h-15l-3.6 6.6h-4.1l13.3-23.8zm7.9 14.5l-6.1-11-6.1 11h12.2zM343.1 47.6h3.8v20.9h17.9l-.7 2.9H343V47.6h.1zM368.8 47.6h3.8v20.9h17.9l-.7 2.9h-21.1V47.6h.1z"/></g></svg>